<?xml version="1.0" encoding="utf-8"?>
<!-- Generator: Adobe Illustrator 19.1.0, SVG Export Plug-In . SVG Version: 6.00 Build 0)  -->
<svg version="1.1" id="Layer_1" xmlns="http://www.w3.org/2000/svg" xmlns:xlink="http://www.w3.org/1999/xlink" x="0px" y="0px"
	 viewBox="0 0 583.3 302.1" style="enable-background:new 0 0 583.3 302.1;" xml:space="preserve">
<style type="text/css">
	.st0{fill:#FFFFFF;}
	.st1{fill:#414042;}
	.st2{fill:url(#SVGID_1_);}
	.st3{fill:url(#SVGID_2_);}
	.st4{fill:url(#SVGID_3_);}
	.st5{fill:url(#SVGID_4_);}
	.st6{fill:url(#SVGID_5_);}
	.st7{fill:url(#SVGID_6_);}
	.st8{fill:url(#SVGID_7_);}
	.st9{fill:url(#SVGID_8_);}
	.st10{fill:url(#SVGID_9_);}
	.st11{fill:url(#SVGID_10_);}
	.st12{fill:url(#SVGID_11_);}
	.st13{fill:url(#SVGID_12_);}
	.st14{fill:url(#SVGID_13_);}
	.st15{fill:url(#SVGID_14_);}
	.st16{fill:url(#SVGID_15_);}
	.st17{fill:url(#SVGID_16_);}
	.st18{fill:#F8951D;}
	.st19{fill:url(#SVGID_17_);}
	.st20{fill:url(#SVGID_18_);}
	.st21{fill:none;}
	.st22{font-family:'BenjaminGothicWide';}
	.st23{font-size:60.84px;}
	.st24{fill:#F89832;}
	.st25{font-size:135.2px;}
	.st26{letter-spacing:1;}
	.st27{font-size:101.4px;}
</style>
<ellipse class="st0" cx="135.9" cy="145.2" rx="94.9" ry="94.3"/>
<path class="st1" d="M156.5,51.1c0,0-8.3-25.2,16.9-30.5c0,0-21.4,3.6-29.7,23.6c0,0-6.3-10.8,4.3-20.3c0,0-15.4,12.6-15.3,20.3
	c0,0-4.4-24.6,9.1-31.6c0,0-19.9,18.6-22.3,31.6S156.5,51.1,156.5,51.1z"/>
<path class="st1" d="M84.7,236.2c-11.9,8.2-25,10.2-29.1,4.3l0,0c-4-5.9,2.4-17.4,14.4-25.6"/>
<g>
	
		<linearGradient id="SVGID_1_" gradientUnits="userSpaceOnUse" x1="-92.1291" y1="-793.8195" x2="-90.834" y2="-779.2853" gradientTransform="matrix(0.5412 0.8409 -0.8409 0.5412 -517.4853 760.1211)">
		<stop  offset="0" style="stop-color:#FBB040"/>
		<stop  offset="1" style="stop-color:#F7941E"/>
	</linearGradient>
	<path class="st2" d="M93,273.3c3.9-4.9,8.7-15.4,4.9-19.9c-4-4.7-16.3-0.9-21.3,2.4c-3.9,1.8-10,6.5-9.1,9.6c0.5,1.8,3.3,2.7,6.3,3
		c-1.1,2.6-1.5,5.1-0.4,6.4c1.1,1.3,3.7,1.1,6.3,0.2c0,2.7,0.5,5,1.9,5.8C84.8,282.3,90.7,276.8,93,273.3z"/>
	
		<radialGradient id="SVGID_2_" cx="-101.8391" cy="-768.9474" r="7.057" gradientTransform="matrix(0.5412 0.8409 -0.8409 0.5412 -517.4853 760.1211)" gradientUnits="userSpaceOnUse">
		<stop  offset="0" style="stop-color:#FAA835"/>
		<stop  offset="1" style="stop-color:#F7941E"/>
	</radialGradient>
	<path class="st3" d="M78.3,255.3c3.5-1.1,5.4,1.5,6.5,5c1.1,3.5,0.9,6.7-2.6,7.8c-3.5,1.1-13.4,0.9-14.5-2.6
		C66.7,262,74.8,256.4,78.3,255.3z"/>
	
		<radialGradient id="SVGID_3_" cx="-78.0954" cy="-772.6888" r="8.5037" gradientTransform="matrix(0.5412 0.8409 -0.8409 0.5412 -517.4853 760.1211)" gradientUnits="userSpaceOnUse">
		<stop  offset="0" style="stop-color:#FAA734"/>
		<stop  offset="0.8681" style="stop-color:#F7941E"/>
	</radialGradient>
	<path class="st4" d="M81.9,266.2c1.6-3.2,4.8-2.9,8.1-1.2c3.3,1.7,5.5,4,3.8,7.3c-1.6,3.2-8.6,10.3-11.9,8.6
		C78.6,279.2,80.2,269.4,81.9,266.2z"/>
	
		<radialGradient id="SVGID_4_" cx="95.4199" cy="-794.6002" r="12.2976" gradientTransform="matrix(0.4273 0.7161 -0.8215 0.5624 -621.2451 646.5104)" gradientUnits="userSpaceOnUse">
		<stop  offset="0" style="stop-color:#FBB040"/>
		<stop  offset="0.8956" style="stop-color:#F7941E"/>
	</radialGradient>
	<path class="st5" d="M79.4,260.8c2.7-2.5,5.2-1.4,7.3,0.9c2.1,2.3,2.9,4.8,0.2,7.3c-2.7,2.5-11.3,7-13.4,4.7
		C71.4,271.5,76.7,263.3,79.4,260.8z"/>
</g>
<g>
	
		<linearGradient id="SVGID_5_" gradientUnits="userSpaceOnUse" x1="-1001.8555" y1="620.5768" x2="-1000.5604" y2="635.1111" gradientTransform="matrix(-0.5412 0.8409 0.8409 0.5412 -891.3155 760.1211)">
		<stop  offset="0" style="stop-color:#FBB040"/>
		<stop  offset="1" style="stop-color:#F7941E"/>
	</linearGradient>
	<path class="st6" d="M179.9,273.8c-3.9-4.9-8.7-15.4-4.9-19.9c4-4.7,16.3-0.9,21.3,2.4c3.9,1.8,10,6.5,9.1,9.6
		c-0.5,1.8-3.3,2.7-6.3,3c1.1,2.6,1.5,5.1,0.4,6.4c-1.1,1.3-3.7,1.1-6.3,0.2c0,2.7-0.5,5-1.9,5.8
		C188.1,282.8,182.2,277.3,179.9,273.8z"/>
	
		<radialGradient id="SVGID_6_" cx="-1011.5654" cy="645.4491" r="7.057" gradientTransform="matrix(-0.5412 0.8409 0.8409 0.5412 -891.3155 760.1211)" gradientUnits="userSpaceOnUse">
		<stop  offset="0" style="stop-color:#FAA835"/>
		<stop  offset="1" style="stop-color:#F7941E"/>
	</radialGradient>
	<path class="st7" d="M194.6,255.9c-3.5-1.1-5.4,1.5-6.5,5c-1.1,3.5-0.9,6.7,2.6,7.8c3.5,1.1,13.4,0.9,14.5-2.6
		C206.2,262.5,198.1,256.9,194.6,255.9z"/>
	
		<radialGradient id="SVGID_7_" cx="-987.8215" cy="641.7079" r="8.5034" gradientTransform="matrix(-0.5412 0.8409 0.8409 0.5412 -891.3155 760.1211)" gradientUnits="userSpaceOnUse">
		<stop  offset="0" style="stop-color:#FAA734"/>
		<stop  offset="0.8681" style="stop-color:#F7941E"/>
	</radialGradient>
	<path class="st8" d="M191,266.8c-1.6-3.2-4.8-2.9-8.1-1.2c-3.3,1.7-5.5,4-3.8,7.3c1.6,3.2,8.6,10.3,11.9,8.6
		C194.3,279.8,192.7,270,191,266.8z"/>
	
		<radialGradient id="SVGID_8_" cx="-1045.5306" cy="659.0607" r="12.2976" gradientTransform="matrix(-0.4273 0.7161 0.8215 0.5624 -787.5557 646.5104)" gradientUnits="userSpaceOnUse">
		<stop  offset="0" style="stop-color:#FBB040"/>
		<stop  offset="0.8956" style="stop-color:#F7941E"/>
	</radialGradient>
	<path class="st9" d="M193.5,261.4c-2.7-2.5-5.2-1.4-7.3,0.9c-2.1,2.3-2.9,4.8-0.2,7.3c2.7,2.5,11.3,7,13.4,4.7
		C201.5,272.1,196.2,263.9,193.5,261.4z"/>
</g>
<ellipse class="st1" cx="137.3" cy="235.3" rx="64.5" ry="42"/>
<ellipse class="st0" cx="137.9" cy="213.4" rx="53.3" ry="53.4"/>
<path class="st1" d="M175.2,65c0,0-23.9-6.8-35.2,22c0,0-1.6-10.2-42.3-34.8L175.2,65z"/>
<linearGradient id="SVGID_9_" gradientUnits="userSpaceOnUse" x1="191.802" y1="204.8797" x2="253.2448" y2="266.3225">
	<stop  offset="0" style="stop-color:#FFC546"/>
	<stop  offset="1" style="stop-color:#F8951D"/>
</linearGradient>
<path class="st10" d="M246.3,236.2l-35.5-35.5c-5.9,9.2-14.8,17.6-24.3,22.2l36.5,36.5c5.3,5.3,14,5.3,19.3,0l4-3.9
	C251.6,250.1,251.6,241.5,246.3,236.2z"/>
<linearGradient id="SVGID_10_" gradientUnits="userSpaceOnUse" x1="30.4104" y1="144.0286" x2="237.1081" y2="144.0286">
	<stop  offset="0" style="stop-color:#FFC546"/>
	<stop  offset="1" style="stop-color:#F8951D"/>
</linearGradient>
<path class="st11" d="M237.1,144c0-57.1-46.3-103.4-103.4-103.4C76.7,40.7,30.4,87,30.4,144c0,57.1,46.2,103.3,103.3,103.3
	C190.8,247.4,237.1,201.1,237.1,144z M133.7,223.2C90,223.1,54.7,187.8,54.5,144c0.1-43.7,35.5-79.1,79.2-79.2
	c43.8,0.1,79.1,35.4,79.2,79.2C212.8,187.8,177.5,223.1,133.7,223.2z"/>
<g>
	<linearGradient id="SVGID_11_" gradientUnits="userSpaceOnUse" x1="156.9887" y1="129.3486" x2="103.5583" y2="164.7281">
		<stop  offset="0" style="stop-color:#FFC546"/>
		<stop  offset="1" style="stop-color:#F8951D"/>
	</linearGradient>
	<path class="st12" d="M177.3,210.4c25-13.3,42-39.6,42.1-69.9c-0.1-43.7-35.4-79.1-79.2-79.2c-16.4,0-31.7,5-44.3,13.6
		c11.1-5.9,23.7-9.2,37.1-9.3c43.8,0.1,79.1,35.4,79.2,79.2C212.2,172.1,198.3,196.1,177.3,210.4z"/>
	<linearGradient id="SVGID_12_" gradientUnits="userSpaceOnUse" x1="156.7706" y1="129.0195" x2="103.343" y2="164.3972">
		<stop  offset="0" style="stop-color:#FFC546"/>
		<stop  offset="1" style="stop-color:#F8951D"/>
	</linearGradient>
	<path class="st13" d="M140.2,243.8c-57.1,0-103.3-46.2-103.3-103.3c0-36.3,18.7-68.2,46.9-86.6c-32.3,17.5-54.2,51.7-54.2,90.9
		c0,57.1,46.2,103.3,103.3,103.3c20.8,0,40.2-6.2,56.4-16.8C174.8,239.3,158.1,243.8,140.2,243.8z"/>
</g>
<linearGradient id="SVGID_13_" gradientUnits="userSpaceOnUse" x1="85.5221" y1="77.6212" x2="104.0238" y2="170.7265" gradientTransform="matrix(0.9984 -5.650000e-002 5.650000e-002 0.9984 -6.2607 21.5841)">
	<stop  offset="0" style="stop-color:#F0EFEF"/>
	<stop  offset="1" style="stop-color:#AEB3B6"/>
</linearGradient>
<path class="st14" d="M89.5,92.6c0,0-31.3-4.3-31.7,50.6c-0.3,54.9,44.8,44.5,44.8,44.5s38.6-5.5,32.6-49.7
	C129.4,93.8,89.5,92.6,89.5,92.6z"/>
<path class="st1" d="M134.2,143.1c0.6,9.9-4.4,18.2-11,18.5c-6.7,0.4-12.5-7.3-13.1-17.2c-0.6-9.9,4.4-18.1,11-18.5
	C127.8,125.6,133.6,133.2,134.2,143.1z"/>
<linearGradient id="SVGID_14_" gradientUnits="userSpaceOnUse" x1="120.5747" y1="114.2292" x2="126.5301" y2="127.7102" gradientTransform="matrix(0.9984 -5.650000e-002 5.650000e-002 0.9984 -6.2607 21.5841)">
	<stop  offset="0" style="stop-color:#FFFFFF"/>
	<stop  offset="1" style="stop-color:#AEB3B6"/>
</linearGradient>
<path class="st15" d="M115.4,132.6c0,0,4.7,3.6,9.5,9.1c0,0,4.9-0.4,5.4-6.4C130.8,129.3,117.2,125,115.4,132.6z"/>
<linearGradient id="SVGID_15_" gradientUnits="userSpaceOnUse" x1="166.3538" y1="83.3594" x2="178.5134" y2="152.0878" gradientTransform="matrix(0.9984 -5.650000e-002 5.650000e-002 0.9984 -6.2607 21.5841)">
	<stop  offset="0" style="stop-color:#FFFFFF"/>
	<stop  offset="1" style="stop-color:#AEB3B6"/>
</linearGradient>
<path class="st16" d="M167.5,112.4c0,0,19.3-7,37.7,13.6c18.4,20.6-16.2,44.8-26,44.8c0,0-26.7,6.4-38.2-22
	C141,148.9,133.9,120.2,167.5,112.4z"/>
<path class="st1" d="M160.2,146.2c0.4,7.3-3.2,13.4-8.1,13.7c-4.9,0.3-9.2-5.4-9.6-12.7c-0.4-7.3,3.2-13.4,8.1-13.6
	C155.5,133.3,159.8,139,160.2,146.2z"/>
<linearGradient id="SVGID_16_" gradientUnits="userSpaceOnUse" x1="149.7678" y1="122.7929" x2="154.1563" y2="132.7269" gradientTransform="matrix(0.9984 -5.650000e-002 5.650000e-002 0.9984 -6.2607 21.5841)">
	<stop  offset="0" style="stop-color:#FFFFFF"/>
	<stop  offset="1" style="stop-color:#AEB3B6"/>
</linearGradient>
<path class="st17" d="M146.4,138.5c0,0,3.4,2.6,7,6.7c0,0,3.6-0.3,4-4.7C157.7,136.1,147.7,132.9,146.4,138.5z"/>
<g>
	<path class="st18" d="M140.8,172.7c0,0-21.4,3.7-12,21.1c9.4,17.4,13.6,20.9,15.8,20.8c2.2-0.1,8.5-17.5,9.8-21.6
		C154.4,192.9,165.4,173.5,140.8,172.7z"/>
	
		<linearGradient id="SVGID_17_" gradientUnits="userSpaceOnUse" x1="155.1971" y1="195.9408" x2="135.3001" y2="169.0799" gradientTransform="matrix(0.9997 -2.460000e-002 2.460000e-002 0.9997 -2.5291 9.9983)">
		<stop  offset="0" style="stop-color:#FFFFFF"/>
		<stop  offset="1" style="stop-color:#FFC443"/>
	</linearGradient>
	<path class="st19" d="M130.4,181.6c0,0,11.4,3.5,17.6,16.7c0,0,11.7-14.9-0.5-21.5C147.5,176.8,136.8,172.3,130.4,181.6z"/>
	<linearGradient id="SVGID_18_" gradientUnits="userSpaceOnUse" x1="150.727" y1="218.7802" x2="129.2433" y2="189.7773">
		<stop  offset="0" style="stop-color:#FFFFFF"/>
		<stop  offset="1" style="stop-color:#FFC443"/>
	</linearGradient>
	<path class="st20" d="M133.2,193.2c0,0,9.6,12,11.1,18.5c-0.2,0-7.5-8.9-14.9-22.1C129.6,189.9,133.2,193.2,133.2,193.2z"/>
</g>
<path class="st1" d="M214.6,114.6c-1.5-1.7-20.4-31.9-76.5-15.1c-3.6,0.7,6.6,4.6,6.6,4.6l-6.9,14.9
	C137.9,119,164.1,86.7,214.6,114.6z"/>
<path class="st1" d="M129.5,85.7c0,0-52.2-39.8-99.2,17.3c-0.2-1.2,61.1-40.2,95.9-3.7c1.3,0.4-1.5-9.1-1.5-9.1L129.5,85.7z"/>
<path class="st1" d="M247.7,236.9c-10.6,10.4-24.2,13.9-30.3,7.8l0,0c-6.1-6.2-2.4-19.8,8.2-30.2"/>
<rect x="567.6" y="43.9" class="st21" width="391.4" height="73.8"/>
<text transform="matrix(1 0 0 1 597.4682 91.6106)" class="st1 st22 st23">BURGH’S</text>
<rect x="571.6" y="96" class="st21" width="377.3" height="280.9"/>
<text transform="matrix(1 0 0 1 592.1606 202.1302)" class="st24 st22 st25 st26">EYE</text>
<rect x="580.7" y="206.3" class="st21" width="365.4" height="92.8"/>
<text transform="matrix(1 0 0 1 599.6884 285.8889)" class="st1 st22 st27">VIEW</text>
<g>
	<path class="st1" d="M246.2,43.3h26.2c11.6,0.1,17.1,4.1,17.1,12.2c0,5.5-3.3,9.6-10.3,10.5v0.1c8,0.8,11.5,5,11.5,10.9
		c0,8-5.3,12.1-16.5,12.1h-28V43.3z M268.8,61.1c2.9,0,4.3-1.1,4.3-3.3c0-2.2-1.4-3.3-4.3-3.3h-7.1v6.7H268.8z M270,78.5
		c2.9,0,4.3-1.1,4.3-3.4c0-2.1-1.4-3.3-4.3-3.3h-8.2v6.7H270z"/>
	<path class="st1" d="M338.2,69.4c0,13.7-7.3,20.4-22.1,20.4S294,83,294,69.4V43.3h16.2v27.3c0,4.6,2.1,7,5.9,7c3.9,0,6-2.4,6-7
		V43.3h16.2V69.4z"/>
	<path class="st1" d="M364.4,73.9h-4.4v15.2h-15.8V43.3h24.8c12.2,0,18.5,5.1,18.5,15.3c0,6.7-2.8,11.2-8.2,13.5L390,89.1h-17.5
		L364.4,73.9z M359.9,63.3h5.8c4.1,0,5.6-1.1,5.6-4.2c0-3.1-1.5-4.2-5.6-4.2h-5.8V63.3z"/>
	<path class="st1" d="M414.8,63.3H436v25.8h-10.7l-0.6-5.2c-2.3,3.8-6.3,5.9-12.4,5.9c-11.9,0-21.3-7.8-21.3-23.4
		c0-15,8.8-23.7,23.7-23.7c11.3,0,17.6,3.5,21.4,12.5l-15,5.4c-0.6-4.2-2.7-5.8-5.8-5.8c-5.3,0-7.8,3.5-7.8,11.4
		c0,8.7,2.7,11.9,8.3,11.9c4,0,6.6-1.5,6.6-4.8v-0.1h-7.7V63.3z"/>
	<path class="st1" d="M487.4,43.3v45.8h-16.2V72h-12.5v17.1h-16.2V43.3h16.2v16.8h12.5V43.3H487.4z"/>
	<path class="st1" d="M511.2,52c0,6.7-3.8,12.5-11,15.5l-6.7-4.3c4.6-1.9,8.3-4,9.8-7.6l-0.3-0.3c-0.6,0.7-1.3,1-2.2,1
		c-3.5,0-7.1-2.1-7.1-6.9c0-5.3,3.4-7.7,8.5-7.7C508.5,41.7,511.2,46.4,511.2,52z"/>
	<path class="st1" d="M556.9,49.9l-7.1,10.1c-4.2-3.9-8.3-5.5-13.5-5.5c-3.3,0-5.3,1.1-5.3,2.6c0,1.2,1.5,1.9,6.7,2.8
		c12.9,2,18.4,6.4,18.4,15.1c0,9.7-9.2,14.8-20.5,14.8c-11.6,0-16.8-2.4-22.5-6.4l7.1-11.2c3.7,4,8.3,5.8,14.2,5.8
		c3.9,0,5.1-0.9,5.1-2.1c0-1.3-1.7-2-7.1-2.9c-12.8-2.1-18-6.3-18-14.6c0-9.4,7.6-15.7,21.4-15.7C544.6,42.6,550.5,44.3,556.9,49.9z
		"/>
</g>
<g>
	<path class="st24" d="M336.8,173.4V201h-90.6V94.3h88.6v27.7H284v13.3H325v25.6H284v12.6H336.8z"/>
	<path class="st24" d="M417.6,164v37h-37.7v-37l-37.4-69.7H380l11.3,24.4l7.6,19.4l7.6-19.4l11.3-24.4h37L417.6,164z"/>
	<path class="st24" d="M556.7,173.4V201h-90.6V94.3h88.6v27.7h-50.9v13.3h41.1v25.6h-41.1v12.6H556.7z"/>
</g>
<g>
	<path class="st1" d="M303.4,281.6h-31.7l-25.5-75.5H274l10.4,41.3l3.7,14.8l3.4-14.5l10.6-41.5h26.8L303.4,281.6z"/>
	<path class="st1" d="M360.4,281.6h-26.7v-75.5h26.7V281.6z"/>
	<path class="st1" d="M435.9,262v19.6h-64.1v-75.5h62.7v19.6h-36v9.4h29.1v18.1h-29.1v8.9H435.9z"/>
	<path class="st1" d="M487.5,281.6h-29.3l-21.4-75.5h28.7l8.8,54.6l10.6-54.6h22.9l11.2,54.2l8.6-54.2h27.7l-21.5,75.5h-28.3
		l-5.9-28.4l-3-19.3h-0.3l-3,19.3L487.5,281.6z"/>
</g>
</svg>
